<svg xmlns="http://www.w3.org/2000/svg" width="454" height="106"><style>.st3{fill:#ea6c69}.st4{fill:#f5df80}.st5{fill:#7cbd52}</style><path fill="#50bbea" d="M291 82c4-7 9-10 17-10 6 0 12 2 18 0 10-3 16-9 19-19 0-2 1-4-2-5s-4 1-5 4c-5 10-11 16-23 14-11-3-20 0-28 9l-2 1c-11-12-13-32-3-48 4-5 5-10 5-16 0-2-1-6 2-8 3-1 5 2 7 4 3 4 6 4 11 3 5-3 11-2 16-1 6 2 9 1 13-3 1-2 3-4 5-3 3 1 3 4 3 6-1 7 2 13 6 19 10 14 9 32-2 46a40 40 0 0 1-50 12c-2-2-5-2-7-5zm56-42c0-2-1-4-3-4s-4 2-4 4 2 3 4 3 3-1 3-3z"/><path fill="#ea80ae" d="M110 20c-1 19 1 36 6 52l1 3c1 3 2 5 5 4s2-3 1-6c-5-17-7-35-6-53 0-4 2-7 7-9 13-4 26-3 38 6-1 2-3 3-5 3l-17 2c-2 0-5 1-4 4 0 3 2 2 5 2l25-4c3 0 4 0 6 2 7 12 9 25 4 38l-3 3c-8 2-16 5-24 4l-6-2c-5-2-6-6-3-11l4-5c1-2 2-3 0-5-2-1-3-1-5 1-4 5-7 10-6 17 1 6 6 8 11 10 7 2 14 1 21-1h5c-8 6-8 16-12 25-3-1-5-4-6-8-1-2-2-3-5-2-7 1-14 1-21-1-2 2-2 5-4 6-1 2-2 4-6 6 2-7-3-12-4-18 0-1 0-2-2-3a39 39 0 0 1-13-36c2-9 5-17 13-24z"/><path d="M380 58v12c-1 3-1 5 3 6 3 0 4-3 4-6l1-5c-2-12 3-19 13-25 5-3 9-8 15-10 6-4 9-2 9 5 0 9-2 19-4 28-2 7-3 14-3 22 0 3-1 4-4 5-17 6-36 0-47-15-2-3-1-5 1-7l12-10z" class="st3"/><path d="M235 46v10l-1 5c-1 1-3 0-4-1-6-3-13-2-19-2-8 1-12 5-14 16-2 0-3-2-4-1l-5 7c-2 2-4 4-7 4-3 1-4 1-3-3 3-7 3-14 3-21s1-13 6-19l4-11c2-4 5-6 9-5l33 2c3 0 4 2 4 4l-1 4c0 3-1 4-4 4l-16-1c-2 0-5 0-5 3 0 4 3 4 6 4l18 1z" class="st4"/><path d="M18 68c-4-4-4-9-5-15-1-7 1-14 4-21 1-3 2-5 0-7-2-4-1-9 2-12 4-3 8-4 12-1h7c4-2 8-4 14-3l-2 12-19-2-2-1c-2 0-6-1-6 2-1 4 3 4 5 4l20 3c1 4-1 8-1 11 0 2-1 2-2 3-21 8-21 8-27 27zm36-29c1-11 1-11 10-9l8 1c2 0 4-1 4-3s-1-3-3-3l-13-2c-2 0-3-2-3-4 1-11 2-12 12-7 3 1 6 2 9 0 4-3 9-1 12 2s3 8 1 11-1 5 0 8c3 7 4 15 3 24-10-15-25-16-40-18z" class="st5"/><path d="M261 73c-3 4-6 2-9 0-2-3-5-4-8-6-2-1-2-3-2-5l1-11c0-4 2-4 5-4l19 2c5 0 6 2 6 6 0 7-1 13 1 20l2 6v3h-4c-5-2-8-6-11-11z" class="st4"/><path d="M54 90c-10 1-17-3-24-8 10 1 20-1 28-8 8-6 15-13 20-22 11 3 12 18 6 25-5 5-11 6-16 7l-8 1c-3 0-7 0-6 5z" class="st5"/><path d="M362 63c-5-19 0-36 11-40 2 1 3 3 5 3 5 0 5 3 5 7 0 9-3 15-10 20l-11 10zm28-25l3-24c0-3 1-3 3-3l9-1c7 1 8 1 10-6l1-2c6 4 10 9 10 17-7-1-13 3-19 6-6 4-10 9-17 13z" class="st3"/><path d="M220 83l-12-3c-3-3-4-7-3-10 1-4 4-5 8-5 5 0 10-1 14 1 3 1 7 1 7 5s-2 9-6 11l-8 1z" class="st4"/><path d="M433 28c12 11 12 41-7 55 1-19 9-36 7-55z" class="st3"/><path d="M46 47l-5 27c0 2-1 2-3 2-8 1-13-4-12-12 2-8 9-15 20-17z" class="st5"/><path d="M240 11l-2 4c1 6-3 6-8 6l-25-2-2-1c4-8 23-12 37-7z" class="st4"/><path d="M72 49c-5 10-12 18-24 24l4-25c1-2 2-2 3-2 6 0 11 0 17 3z" class="st5"/><path d="M267 42l-21-1c-3-1-2-4-2-6 0-7 1-7 8-6h2c10 0 12 2 13 13z" class="st4"/><path d="M373 18c0-8 5-12 11-16 4 5 1 11 1 17-4 1-8-2-12-1z" class="st3"/><path d="M226 90c8-3 13-6 14-14l1-1c4-2 6 3 9 4 2 1 1 3-1 4-6 5-13 8-23 7zm31-68h-8c-3 0-5-3-4-6 1-2 2-3 3-2 3 2 7 3 9 8z" class="st4"/><path fill="transparent" d="M347 40c0 2-1 3-3 3s-4-1-4-3 2-4 4-4 3 1 3 4z"/></svg>